# xmcd CD database file generated by Grip 2.94
# 
# Track frame offsets:
#       150
#       12490
#       28765
#       42862
#       57002
#       75877
#       91112
#       112577
#       132337
# 
# Disc length: 1997 seconds
# 
# Revision: 3
# Processed by: cddbd v1.4b41PL1 Copyright (c) Steve Scherf et al.
# Submitted via: Grip 2.94
# 
DISCID=5b07cb09
DTITLE=The Isley Brothers - The Very Best Of
DYEAR=1900
DGENRE=
TTITLE0=It's Your Thing
TTITLE1=Midnight Sky (Part 1)
TTITLE2=Live It Up (Part 1)
TTITLE3=Summer Breeze (Part 1)
TTITLE4=Livin' In The Life
TTITLE5=Fight The Power (Part 1)
TTITLE6=For The Love Of You (Parts 1 and 2)
TTITLE7=Inside You (Part 1)
TTITLE8=What It Comes Down To
EXTD=
EXTT0=
EXTT1=
EXTT2=
EXTT3=
EXTT4=
EXTT5=
EXTT6=
EXTT7=
EXTT8=
PLAYORDER=
